<svg width="9" height="9" viewBox="0 0 9 9" fill="none" xmlns="http://www.w3.org/2000/svg">
<path d="M6.75 0H2.25C0.99 0 0 0.99 0 2.25V6.75C0 8.01 0.99 9 2.25 9H6.75C8.01 9 9 8.01 9 6.75V2.25C9 0.99 8.01 0 6.75 0ZM8.1 6.75C8.1 7.515 7.515 8.1 6.75 8.1H2.25C1.485 8.1 0.9 7.515 0.9 6.75V2.25C0.9 1.485 1.485 0.9 2.25 0.9H6.75C7.515 0.9 8.1 1.485 8.1 2.25V6.75Z" fill="white"/>
<path d="M4.5 2.25C3.24 2.25 2.25 3.24 2.25 4.5C2.25 5.76 3.24 6.75 4.5 6.75C5.76 6.75 6.75 5.76 6.75 4.5C6.75 3.24 5.76 2.25 4.5 2.25ZM4.5 5.85C3.735 5.85 3.15 5.265 3.15 4.5C3.15 3.735 3.735 3.15 4.5 3.15C5.265 3.15 5.85 3.735 5.85 4.5C5.85 5.265 5.265 5.85 4.5 5.85Z" fill="white"/>
<path d="M6.74999 2.70005C6.99852 2.70005 7.19999 2.49858 7.19999 2.25005C7.19999 2.00152 6.99852 1.80005 6.74999 1.80005C6.50146 1.80005 6.29999 2.00152 6.29999 2.25005C6.29999 2.49858 6.50146 2.70005 6.74999 2.70005Z" fill="white"/>
</svg>
