<svg width="10" height="9" viewBox="0 0 10 9" fill="none" xmlns="http://www.w3.org/2000/svg">
<path d="M10 1.70944C9.62813 1.85625 9.23187 1.95356 8.81875 2.00081C9.24375 1.77244 9.56813 1.41356 9.72062 0.981C9.32438 1.19362 8.88688 1.34381 8.42062 1.42763C8.04437 1.06706 7.50812 0.84375 6.92312 0.84375C5.78813 0.84375 4.87437 1.67288 4.87437 2.68931C4.87437 2.83556 4.88812 2.97619 4.92188 3.11006C3.2175 3.03525 1.70938 2.30006 0.69625 1.18013C0.519375 1.45631 0.415625 1.77244 0.415625 2.11275C0.415625 2.75175 0.78125 3.31819 1.32625 3.64612C0.996875 3.6405 0.67375 3.55444 0.4 3.41887C0.4 3.4245 0.4 3.43181 0.4 3.43912C0.4 4.33575 1.11062 5.0805 2.0425 5.25206C1.87562 5.29313 1.69375 5.31281 1.505 5.31281C1.37375 5.31281 1.24125 5.30606 1.11687 5.28131C1.3825 6.012 2.13625 6.54919 3.0325 6.56662C2.335 7.05769 1.44938 7.35356 0.490625 7.35356C0.3225 7.35356 0.16125 7.34681 0 7.32825C0.908125 7.85531 1.98438 8.15625 3.145 8.15625C6.9175 8.15625 8.98 5.34375 8.98 2.90587C8.98 2.82431 8.97688 2.74556 8.9725 2.66738C9.37938 2.4075 9.72125 2.08294 10 1.70944Z" fill="white"/>
</svg>
