<svg width="9" height="7" viewBox="0 0 9 7" fill="none" xmlns="http://www.w3.org/2000/svg">
<path d="M8.5405 1.39107C8.44327 1.0296 8.15827 0.744663 7.79686 0.647331C7.1366 0.466675 4.4955 0.466675 4.4955 0.466675C4.4955 0.466675 1.85451 0.466675 1.19425 0.640482C0.839785 0.737711 0.54784 1.02966 0.450611 1.39107C0.276855 2.05128 0.276855 3.42047 0.276855 3.42047C0.276855 3.42047 0.276855 4.79656 0.450611 5.44987C0.547943 5.81128 0.832832 6.09622 1.1943 6.19356C1.86146 6.37426 4.4956 6.37426 4.4956 6.37426C4.4956 6.37426 7.1366 6.37426 7.79686 6.20046C8.15833 6.10318 8.44327 5.81824 8.5406 5.45682C8.7143 4.79656 8.7143 3.42742 8.7143 3.42742C8.7143 3.42742 8.72126 2.05128 8.5405 1.39107ZM3.65464 4.68537V2.15557L5.85084 3.42047L3.65464 4.68537Z" fill="white"/>
</svg>
