<svg width="7" height="12" viewBox="0 0 7 12" fill="none" xmlns="http://www.w3.org/2000/svg">
<path d="M4.60078 6.00005L0.700781 2.10005C0.517448 1.91672 0.425781 1.68338 0.425781 1.40005C0.425781 1.11672 0.517448 0.883382 0.700781 0.700049C0.884115 0.516715 1.11745 0.425049 1.40078 0.425049C1.68411 0.425049 1.91745 0.516715 2.10078 0.700049L6.70078 5.30005C6.80078 5.40005 6.87161 5.50838 6.91328 5.62505C6.95495 5.74172 6.97578 5.86672 6.97578 6.00005C6.97578 6.13338 6.95495 6.25838 6.91328 6.37505C6.87161 6.49172 6.80078 6.60005 6.70078 6.70005L2.10078 11.3C1.91745 11.4834 1.68411 11.575 1.40078 11.575C1.11745 11.575 0.884115 11.4834 0.700781 11.3C0.517448 11.1167 0.425781 10.8834 0.425781 10.6C0.425781 10.3167 0.517448 10.0834 0.700781 9.90005L4.60078 6.00005Z" fill="#1C1B1F"/>
</svg>
