<svg width="8" height="13" viewBox="0 0 8 13" fill="none" xmlns="http://www.w3.org/2000/svg">
<path d="M6.849 7.22495L7.179 5.07295H5.114V3.67595C5.09969 3.51521 5.12171 3.35331 5.17845 3.20223C5.23518 3.05116 5.32517 2.91478 5.44174 2.80319C5.55832 2.69161 5.69851 2.60767 5.85192 2.5576C6.00533 2.50753 6.16804 2.49261 6.328 2.51395H7.267V0.680947C6.71562 0.592015 6.15846 0.543552 5.6 0.535947C5.21559 0.506591 4.82942 0.562207 4.46891 0.698848C4.1084 0.835488 3.78239 1.0498 3.51401 1.32659C3.24563 1.60337 3.04145 1.93583 2.91598 2.30038C2.79051 2.66492 2.74682 3.05262 2.788 3.43595V5.07595H0.897003V7.22495H2.788V12.4249H5.114V7.22495H6.849Z" fill="white"/>
</svg>
