<svg width="14" height="13" viewBox="0 0 14 13" fill="none" xmlns="http://www.w3.org/2000/svg">
<path d="M3.858 0.536011H9.804C10.5925 0.536011 11.3487 0.849237 11.9062 1.40678C12.4638 1.96433 12.777 2.72052 12.777 3.50901V9.45501C12.777 10.2435 12.4638 10.9997 11.9062 11.5572C11.3487 12.1148 10.5925 12.428 9.804 12.428H3.858C3.06951 12.428 2.31332 12.1148 1.75577 11.5572C1.19823 10.9997 0.885002 10.2435 0.885002 9.45501V3.50901C0.885002 2.72052 1.19823 1.96433 1.75577 1.40678C2.31332 0.849237 3.06951 0.536011 3.858 0.536011Z" stroke="white" stroke-linecap="round" stroke-linejoin="round"/>
<path d="M9.213 6.10698C9.28704 6.60192 9.20306 7.10759 8.973 7.55202C8.74293 7.99644 8.37853 8.35696 7.93166 8.58224C7.48479 8.80752 6.97824 8.88608 6.48413 8.80673C5.99002 8.72739 5.53354 8.49418 5.17967 8.14031C4.82581 7.78645 4.5926 7.32996 4.51325 6.83585C4.43391 6.34174 4.51247 5.83519 4.73775 5.38833C4.96303 4.94146 5.32354 4.57705 5.76797 4.34699C6.21239 4.11693 6.71807 4.03294 7.213 4.10698C7.71656 4.18232 8.18264 4.41728 8.54267 4.77731C8.90271 5.13734 9.13767 5.60343 9.213 6.10698Z" stroke="white" stroke-linecap="round" stroke-linejoin="round"/>
</svg>
