<svg width="16" height="13" viewBox="0 0 16 13" fill="none" xmlns="http://www.w3.org/2000/svg">
<path d="M14.038 3.499C14.047 3.629 14.047 3.759 14.047 3.889C14.0548 5.01242 13.8394 6.12619 13.4131 7.16561C12.9868 8.20503 12.3582 9.14937 11.5638 9.94377C10.7694 10.7382 9.82503 11.3668 8.78561 11.7931C7.74619 12.2194 6.63242 12.4348 5.509 12.427C3.87532 12.4312 2.27518 11.9635 0.901001 11.08C1.14174 11.1065 1.38382 11.1188 1.626 11.117C2.97632 11.1206 4.2885 10.6693 5.351 9.836C4.72478 9.82469 4.11774 9.61805 3.61467 9.24496C3.1116 8.87187 2.73763 8.35097 2.545 7.755C2.73258 7.78454 2.92211 7.79992 3.112 7.801C3.37849 7.80097 3.64391 7.76737 3.902 7.701C3.22227 7.5637 2.61109 7.19515 2.17244 6.65805C1.73379 6.12095 1.49475 5.44847 1.496 4.755V4.716C1.91168 4.94804 2.3763 5.07858 2.852 5.097C2.21514 4.67227 1.76439 4.02049 1.59175 3.27472C1.4191 2.52894 1.53758 1.74539 1.923 1.084C2.67672 2.01165 3.61698 2.77054 4.68283 3.31147C5.74867 3.8524 6.91629 4.1633 8.11 4.224C8.06198 3.99812 8.03718 3.76793 8.036 3.537C8.03482 2.93437 8.21516 2.34535 8.55353 1.84668C8.8919 1.348 9.37261 0.962798 9.93304 0.741238C10.4935 0.519679 11.1076 0.472038 11.6955 0.604523C12.2834 0.737008 12.8178 1.04348 13.229 1.484C13.8995 1.35397 14.5423 1.10867 15.129 0.759003C14.9053 1.45252 14.4364 2.04062 13.81 2.413C14.406 2.34501 14.9884 2.18828 15.538 1.948C15.1271 2.54595 14.6183 3.07031 14.033 3.499H14.038Z" fill="white"/>
</svg>
