<svg width="14" height="10" viewBox="0 0 14 10" fill="none" xmlns="http://www.w3.org/2000/svg">
<path d="M13.401 1.84496C13.3236 1.55735 13.1721 1.29511 12.9615 1.08451C12.7509 0.873908 12.4886 0.722331 12.201 0.644958C10.4479 0.432621 8.68278 0.336078 6.91701 0.355958C5.15032 0.334619 3.38416 0.429826 1.63001 0.640958C1.34239 0.718331 1.08016 0.869908 0.869557 1.08051C0.658955 1.29111 0.507378 1.55335 0.430005 1.84096C0.235977 2.92401 0.142579 4.02269 0.151005 5.12296C0.144146 6.22201 0.238882 7.31934 0.434005 8.40096C0.511352 8.68696 0.663175 8.94733 0.873987 9.1555C1.0848 9.36368 1.34705 9.51221 1.63401 9.58596C3.38816 9.79709 5.15432 9.89229 6.92101 9.87096C8.68535 9.89199 10.4492 9.79678 12.201 9.58596C12.488 9.51221 12.7502 9.36368 12.961 9.1555C13.1718 8.94733 13.3237 8.68696 13.401 8.40096C13.5961 7.31934 13.6909 6.22201 13.684 5.12296C13.6909 4.02391 13.5961 2.92657 13.401 1.84496ZM5.53401 7.13496V3.11096L9.07001 5.12296L5.53401 7.13496Z" fill="white"/>
</svg>
