<svg width="10" height="8" viewBox="0 0 10 8" fill="none" xmlns="http://www.w3.org/2000/svg">
<path d="M7.80096 4.62916H0.642055C0.460139 4.62916 0.307651 4.56886 0.184591 4.44827C0.0615302 4.32769 0 4.17826 0 4C0 3.82174 0.0615302 3.67231 0.184591 3.55173C0.307651 3.43114 0.460139 3.37084 0.642055 3.37084H7.80096L5.97111 1.57775C5.8427 1.45191 5.78117 1.30511 5.78652 1.13734C5.79187 0.969561 5.8534 0.822758 5.97111 0.696926C6.09952 0.571095 6.25201 0.505558 6.42857 0.500315C6.60514 0.495072 6.75762 0.555366 6.88604 0.681197L9.82343 3.55959C9.88764 3.62251 9.93312 3.69066 9.95987 3.76407C9.98662 3.83747 10 3.91611 10 4C10 4.08389 9.98662 4.16253 9.95987 4.23593C9.93312 4.30934 9.88764 4.37749 9.82343 4.44041L6.88604 7.3188C6.75762 7.44463 6.60514 7.50493 6.42857 7.49969C6.25201 7.49444 6.09952 7.42891 5.97111 7.30307C5.8534 7.17724 5.79187 7.03044 5.78652 6.86266C5.78117 6.69489 5.8427 6.54809 5.97111 6.42225L7.80096 4.62916Z" fill="white"/>
</svg>
