<svg width="8" height="8" viewBox="0 0 8 8" fill="none" xmlns="http://www.w3.org/2000/svg">
<path d="M4.64379 3.86755L7.33648 1.11602C7.39819 1.05697 7.44766 0.985791 7.48197 0.906725C7.51627 0.82766 7.53469 0.742325 7.53614 0.655807C7.53759 0.569288 7.52203 0.483357 7.4904 0.403131C7.45876 0.322906 7.41169 0.250028 7.352 0.188842C7.2923 0.127655 7.2212 0.0794108 7.14294 0.0469838C7.06467 0.0145568 6.98083 -0.00138959 6.89642 9.48925e-05C6.81201 0.00157938 6.72876 0.0204643 6.65162 0.0556245C6.57449 0.0907846 6.50504 0.141501 6.44743 0.20475L3.757 2.96476L1.07408 0.20475C0.955463 0.0874224 0.796653 0.0225094 0.631818 0.023978C0.466984 0.0254465 0.309298 0.0931791 0.192689 0.212603C0.0760793 0.332026 0.00986548 0.493597 0.00829349 0.662551C0.0067215 0.831505 0.069917 0.994341 0.184283 1.11602L2.87772 3.86755L0.184283 6.62371C0.0662886 6.74465 0 6.90869 0 7.07973C0 7.25077 0.0662886 7.41481 0.184283 7.53575C0.302277 7.6567 0.462312 7.72464 0.629182 7.72464C0.796051 7.72464 0.956086 7.6567 1.07408 7.53575L3.757 4.77497L6.44743 7.53575C6.50546 7.59739 6.57489 7.64656 6.65167 7.68038C6.72845 7.71421 6.81103 7.73201 6.8946 7.73276C6.97816 7.7335 7.06104 7.71717 7.13838 7.68472C7.21572 7.65227 7.28597 7.60434 7.34504 7.54375C7.40411 7.48315 7.4508 7.4111 7.4824 7.3318C7.51399 7.2525 7.52985 7.16754 7.52906 7.08189C7.52826 6.99623 7.51082 6.9116 7.47776 6.83293C7.44469 6.75426 7.39666 6.68314 7.33648 6.62371L4.64379 3.86755Z" fill="white"/>
</svg>
