<svg width="11" height="6" viewBox="0 0 11 6" fill="none" xmlns="http://www.w3.org/2000/svg">
<path d="M9.3243 0.267942L5.52388 3.24215L1.72345 0.267942C1.63565 0.187698 1.52759 0.122526 1.40607 0.0765148C1.28455 0.0305039 1.15219 0.00464773 1.01729 0.000570062C0.8824 -0.00350761 0.747886 0.0142809 0.622193 0.0528188C0.4965 0.0913567 0.38234 0.149812 0.286885 0.224516C0.191429 0.29922 0.116736 0.388559 0.0674934 0.486927C0.0182495 0.585294 -0.00448041 0.690566 0.000730462 0.796135C0.00594038 0.901703 0.0389776 1.00529 0.0977697 1.10039C0.156562 1.19549 0.239838 1.28006 0.342373 1.34878L4.83823 4.86724C5.02175 5.01001 5.27 5.09014 5.52877 5.09014C5.78754 5.09014 6.03579 5.01001 6.21931 4.86724L10.7152 1.34878C10.8976 1.20515 11 1.01087 11 0.80836C11 0.605849 10.8976 0.411565 10.7152 0.267943C10.5291 0.125976 10.2796 0.0465176 10.0197 0.0465176C9.75989 0.0465176 9.51033 0.125976 9.3243 0.267942Z" fill="#A5A5A5"/>
</svg>
