<svg width="16" height="16" viewBox="0 0 16 16" fill="none" xmlns="http://www.w3.org/2000/svg">
<path d="M6.66683 14.6666V9.99998H5.3335V5.99998C5.3335 5.63331 5.46405 5.31942 5.72516 5.05831C5.98627 4.7972 6.30016 4.66665 6.66683 4.66665H9.3335C9.70016 4.66665 10.0141 4.7972 10.2752 5.05831C10.5363 5.31942 10.6668 5.63331 10.6668 5.99998V9.99998H9.3335V14.6666H6.66683ZM8.00016 3.99998C7.6335 3.99998 7.31961 3.86942 7.0585 3.60831C6.79739 3.3472 6.66683 3.03331 6.66683 2.66665C6.66683 2.29998 6.79739 1.98609 7.0585 1.72498C7.31961 1.46387 7.6335 1.33331 8.00016 1.33331C8.36683 1.33331 8.68072 1.46387 8.94183 1.72498C9.20294 1.98609 9.3335 2.29998 9.3335 2.66665C9.3335 3.03331 9.20294 3.3472 8.94183 3.60831C8.68072 3.86942 8.36683 3.99998 8.00016 3.99998Z" fill="#F4CC1D"/>
</svg>
