<svg width="28" height="20" viewBox="0 0 28 20" fill="none" xmlns="http://www.w3.org/2000/svg">
<path d="M21.6364 12.5V8.75H17.8182V6.25H21.6364V2.5H24.1818V6.25H28V8.75H24.1818V12.5H21.6364ZM10.1818 10C8.78182 10 7.58333 9.51042 6.58636 8.53125C5.58939 7.55208 5.09091 6.375 5.09091 5C5.09091 3.625 5.58939 2.44792 6.58636 1.46875C7.58333 0.489583 8.78182 0 10.1818 0C11.5818 0 12.7803 0.489583 13.7773 1.46875C14.7742 2.44792 15.2727 3.625 15.2727 5C15.2727 6.375 14.7742 7.55208 13.7773 8.53125C12.7803 9.51042 11.5818 10 10.1818 10ZM0 20V16.5C0 15.7917 0.185606 15.1406 0.556818 14.5469C0.92803 13.9531 1.42121 13.5 2.03636 13.1875C3.35152 12.5417 4.68788 12.0573 6.04545 11.7344C7.40303 11.4115 8.78182 11.25 10.1818 11.25C11.5818 11.25 12.9606 11.4115 14.3182 11.7344C15.6758 12.0573 17.0121 12.5417 18.3273 13.1875C18.9424 13.5 19.4356 13.9531 19.8068 14.5469C20.178 15.1406 20.3636 15.7917 20.3636 16.5V20H0ZM2.54545 17.5H17.8182V16.5C17.8182 16.2708 17.7598 16.0625 17.6432 15.875C17.5265 15.6875 17.3727 15.5417 17.1818 15.4375C16.0364 14.875 14.8803 14.4531 13.7136 14.1719C12.547 13.8906 11.3697 13.75 10.1818 13.75C8.99394 13.75 7.81667 13.8906 6.65 14.1719C5.48333 14.4531 4.32727 14.875 3.18182 15.4375C2.99091 15.5417 2.83712 15.6875 2.72045 15.875C2.60379 16.0625 2.54545 16.2708 2.54545 16.5V17.5ZM10.1818 7.5C10.8818 7.5 11.4811 7.25521 11.9795 6.76562C12.478 6.27604 12.7273 5.6875 12.7273 5C12.7273 4.3125 12.478 3.72396 11.9795 3.23438C11.4811 2.74479 10.8818 2.5 10.1818 2.5C9.48182 2.5 8.88258 2.74479 8.38409 3.23438C7.88561 3.72396 7.63636 4.3125 7.63636 5C7.63636 5.6875 7.88561 6.27604 8.38409 6.76562C8.88258 7.25521 9.48182 7.5 10.1818 7.5Z" fill="#434343" fill-opacity="0.4"/>
</svg>
